# Blender v2.78 (sub 0) OBJ File: 'horse.blend'
# www.blender.org
mtllib horse.mtl
o Cube.001_Cube.002
v 0.059321 0.925662 -0.596009
v 0.042608 0.987361 -0.559196
v 0.039332 0.980320 -0.610873
v 0.032903 0.918038 -0.637872
v 0.052804 0.849278 -0.730637
v 0.074394 0.588587 -0.738642
v 0.026157 0.769338 -0.669351
v 0.198181 0.071581 -0.385540
v 0.167419 0.057011 -0.494375
v 0.147099 0.002374 -0.476818
v 0.195823 0.000066 -0.360674
v 0.121617 0.002637 -0.337832
v 0.083995 1.033853 -0.172917
v 0.173125 0.955920 -0.246148
v 0.179683 0.949831 0.169105
v 0.212103 0.693693 0.002857
v 0.102802 0.585563 0.060466
v 0.219995 0.844907 -0.334229
v 0.189483 0.751873 -0.283914
v 0.185830 1.030727 -0.429190
v 0.206819 0.764616 -0.496045
v 0.127256 0.761794 -0.599712
v 0.123763 0.641384 -0.535335
v 0.056328 0.973512 -0.576058
v 0.041877 0.993290 -0.561819
v 0.112125 0.672641 -0.299280
v 0.118707 0.388296 -0.567259
v 0.182047 0.392118 -0.476831
v 0.176663 0.241955 -0.453587
v 0.123592 0.117814 -0.515830
v 0.193016 0.395732 -0.541861
v 0.061261 0.668214 -0.445868
v 0.109996 0.369896 -0.508759
v 0.107256 0.089927 -0.400155
v 0.056208 0.927905 -0.597927
v 0.077263 1.339928 0.644095
v 0.096308 1.134406 0.661291
v 0.078980 1.273026 0.717362
v 0.041575 1.063457 0.901244
v 0.061880 1.083308 0.759811
v 0.043710 0.991164 0.845665
v 0.077543 1.060438 0.193052
v 0.195506 0.756403 0.293553
v 0.155269 0.644058 0.253200
v 0.071572 1.227955 0.534099
v 0.048691 1.348783 0.648027
v 0.171157 0.897085 0.404504
v 0.099252 0.989867 0.443756
v 0.031925 1.110852 0.600677
v 0.143398 0.404998 0.265512
v 0.178971 0.416717 0.345327
v 0.156121 0.698448 0.460164
v 0.053214 0.927110 0.492273
v 0.137603 0.608147 0.422833
v 0.089804 0.597579 0.359746
v 0.094378 0.373471 0.304959
v 0.091283 0.597047 0.276750
v 0.136869 0.401325 0.371096
v 0.150303 0.323996 0.341727
v 0.153814 0.160399 0.338674
v 0.144415 0.101673 0.254108
v 0.162472 0.078044 0.378907
v 0.157420 0.007463 0.299769
v 0.106886 0.010157 0.302960
v 0.092232 0.075242 0.347798
v 0.148028 0.001177 0.423182
v 0.070186 1.329048 0.658551
v 0.082705 1.410279 0.684604
v -0.054896 0.926480 -0.592352
v -0.043380 0.988801 -0.559600
v -0.043190 0.970771 -0.609257
v -0.048223 0.921397 -0.693855
v -0.044358 0.793138 -0.688167
v -0.071966 0.555328 -0.747281
v -0.042576 0.380918 -0.650033
v 0.021492 0.386694 -0.631977
v 0.020383 0.227629 -0.701192
v -0.031051 0.777470 -0.765138
v 0.029415 0.563594 -0.781508
v -0.031336 0.250184 -0.699347
v -0.198166 0.071527 -0.385556
v -0.167447 0.057048 -0.494343
v -0.147094 0.002608 -0.476872
v -0.195822 0.000056 -0.360667
v -0.121614 0.002562 -0.337804
v -0.098244 1.025122 -0.176989
v -0.182882 0.939256 -0.252923
v -0.075046 1.069587 0.210773
v -0.187641 0.948748 0.091214
v -0.212398 0.694240 0.003129
v -0.097147 0.581771 0.059021
v 0.074520 1.092840 -0.355338
v -0.199735 0.765878 -0.294582
v -0.175446 1.051286 -0.418886
v -0.210586 0.826871 -0.502683
v -0.136538 1.029976 -0.514423
v 0.145897 1.009971 -0.547575
v -0.123763 0.641384 -0.535335
v -0.129867 0.827301 -0.606147
v -0.047981 0.985144 -0.559210
v -0.171585 0.658003 -0.532316
v -0.118559 0.388407 -0.567205
v -0.181648 0.392826 -0.476515
v -0.176691 0.242374 -0.453727
v -0.123720 0.117653 -0.515873
v -0.192698 0.400115 -0.541809
v -0.112172 0.674949 -0.298013
v 0.017589 0.704916 -0.562301
v -0.061159 0.666874 -0.440684
v -0.109873 0.370058 -0.508889
v -0.107402 0.090201 -0.400234
v -0.055018 0.925468 -0.595238
v -0.077263 1.339928 0.644095
v -0.096308 1.134406 0.661291
v -0.078980 1.273026 0.717362
v -0.000324 1.336893 0.726203
v -0.042893 0.985959 0.847923
v -0.022920 1.060089 0.740685
v 0.000000 0.995827 0.795984
v -0.000001 1.358746 0.602251
v -0.042399 1.056201 0.902647
v -0.016722 1.059641 0.130984
v -0.113218 1.039535 0.320323
v -0.200492 0.765430 0.217613
v -0.155269 0.644058 0.253200
v -0.048731 1.348634 0.647799
v -0.203761 0.659163 0.381535
v -0.176674 0.837493 0.447782
v -0.095349 0.983173 0.450373
v -0.063702 1.173035 0.583805
v -0.143398 0.404998 0.265512
v -0.109688 0.693451 0.461676
v -0.134154 0.600132 0.417069
v -0.028413 0.921999 0.509922
v -0.094378 0.373471 0.304959
v -0.080339 0.587957 0.307540
v -0.136869 0.401325 0.371096
v -0.161561 0.346656 0.344975
v -0.153814 0.160399 0.338674
v -0.144415 0.101673 0.254108
v -0.162472 0.078044 0.378907
v -0.157411 0.007430 0.299772
v -0.095257 0.138199 0.315437
v -0.106883 0.009963 0.303045
v -0.102482 0.066037 0.368306
v -0.148000 0.001496 0.423106
v -0.070298 1.329130 0.658239
v -0.082941 1.410498 0.685073
vt 0.3453 0.2404
vt 0.4319 0.3076
vt 0.3540 0.3244
vt 0.3037 0.2288
vt 0.4716 0.2031
vt 0.4710 0.2883
vt 0.4201 0.2326
vt 0.3083 0.3266
vt 0.3960 0.3353
vt 0.4492 0.3510
vt 0.3860 0.3892
vt 0.4574 0.3760
vt 0.4891 0.3895
vt 0.4783 0.4035
vt 0.3919 0.4185
vt 0.4568 0.4236
vt 0.2921 0.4400
vt 0.2770 0.4281
vt 0.2538 0.4203
vt 0.2541 0.3505
vt 0.2554 0.3497
vt 0.3017 0.4506
vt 0.3582 0.4206
vt 0.3647 0.4378
vt 0.3772 0.4332
vt 0.2946 0.2242
vt 0.2982 0.2231
vt 0.4266 0.2060
vt 0.2460 0.4139
vt 0.2412 0.3413
vt 0.4888 0.9172
vt 0.3903 0.8674
vt 0.4609 0.8590
vt 0.3249 0.8987
vt 0.3527 0.7701
vt 0.3976 0.7571
vt 0.3678 0.6881
vt 0.3148 0.1688
vt 0.3607 0.1666
vt 0.4758 0.1273
vt 0.4017 0.1461
vt 0.2868 0.0998
vt 0.3693 0.1171
vt 0.3358 0.1089
vt 0.4596 0.1063
vt 0.4137 0.1170
vt 0.4135 0.1099
vt 0.4341 0.1434
vt 0.3593 0.1087
vt 0.3328 0.0925
vt 0.2893 0.0894
vt 0.4843 0.1293
vt 0.2703 0.1657
vt 0.2616 0.1624
vt 0.2467 0.1592
vt 0.2509 0.1101
vt 0.2677 0.1092
vt 0.2943 0.0802
vt 0.2752 0.0806
vt 0.3785 0.4898
vt 0.3874 0.5008
vt 0.3605 0.5148
vt 0.3509 0.4856
vt 0.3583 0.5152
vt 0.3394 0.4945
vt 0.4721 0.9061
vt 0.4744 0.8949
vt 0.4893 0.7297
vt 0.4814 0.3297
vt 0.4260 0.9545
vt 0.3093 0.3277
vt 0.3455 0.2405
vt 0.3561 0.3294
vt 0.4268 0.3101
vt 0.2990 0.2291
vt 0.4724 0.1985
vt 0.4207 0.2325
vt 0.4654 0.2894
vt 0.4531 0.3471
vt 0.4636 0.3692
vt 0.4030 0.3801
vt 0.4181 0.4126
vt 0.4863 0.3931
vt 0.3662 0.4041
vt 0.2927 0.4387
vt 0.2770 0.4280
vt 0.2538 0.4202
vt 0.3582 0.4206
vt 0.3018 0.4506
vt 0.3647 0.4378
vt 0.4199 0.2216
vt 0.4962 0.2218
vt 0.2460 0.4138
vt 0.4570 0.4237
vt 0.4888 0.9172
vt 0.4609 0.8590
vt 0.3903 0.8674
vt 0.3842 0.9310
vt 0.3960 0.6582
vt 0.3148 0.1688
vt 0.3652 0.1904
vt 0.4456 0.1729
vt 0.3585 0.5153
vt 0.3786 0.4899
vt 0.3509 0.4856
vt 0.3865 0.1355
vt 0.4691 0.1175
vt 0.4322 0.1372
vt 0.3395 0.1386
vt 0.2893 0.0894
vt 0.2774 0.0857
vt 0.3308 0.0929
vt 0.3327 0.1057
vt 0.4843 0.1293
vt 0.2677 0.1092
vt 0.2509 0.1101
vt 0.2943 0.0802
vt 0.3605 0.5149
vt 0.3874 0.5008
vt 0.3394 0.4945
vt 0.4721 0.9061
vt 0.4744 0.8949
vt 0.2278 0.3496
vt 0.3994 0.6588
vt 0.4623 0.6595
vt 0.4838 0.7237
vt 0.3722 0.5583
vt 0.4361 0.7182
vt 0.4725 0.6975
vt 0.4542 0.6516
vt 0.2307 0.4972
vt 0.2052 0.5011
vt 0.2508 0.4651
vt 0.2513 0.5053
vt 0.2647 0.4992
vt 0.2618 0.5180
vt 0.2148 0.4828
vt 0.2250 0.0572
vt 0.2464 0.0511
vt 0.2070 0.0643
vt 0.2336 0.0341
vt 0.2129 0.0420
vt 0.2456 0.0289
vt 0.4651 0.8741
vt 0.4920 0.8819
vt 0.2047 0.0510
vt 0.2052 0.5011
vt 0.2307 0.4972
vt 0.2509 0.4650
vt 0.2513 0.5053
vt 0.2648 0.4991
vt 0.2618 0.5180
vt 0.2149 0.4828
vt 0.2464 0.0511
vt 0.2250 0.0572
vt 0.2190 0.0729
vt 0.2336 0.0341
vt 0.2129 0.0420
vt 0.2429 0.0260
vt 0.2047 0.0510
vt 0.2034 0.0618
vt 0.4651 0.8741
vt 0.2548 0.0390
vt 0.2129 0.4631
vt 0.2130 0.4631
vt 0.4922 0.4143
vt 0.4881 0.4299
vt 0.4748 0.4201
vt 0.4929 0.4591
vt 0.4905 0.4766
vt 0.4584 0.4944
vt 0.4799 0.5455
vt 0.4651 0.6064
vt 0.4781 0.4457
vt 0.4946 0.5531
vt 0.4909 0.6316
vt 0.4961 0.6374
vt 0.4985 0.9298
vt 0.4950 0.1395
vt 0.4855 0.4283
vt 0.4743 0.4208
vt 0.4921 0.4142
vt 0.4704 0.4852
vt 0.4724 0.6057
vt 0.4850 0.5501
vt 0.4940 0.4981
vt 0.2576 0.5222
vt 0.2441 0.5188
vt 0.1954 0.4881
vt 0.2198 0.5137
vt 0.2395 0.5223
vt 0.2132 0.0204
vt 0.2261 0.0198
vt 0.2431 0.0124
vt 0.2441 0.5188
vt 0.2576 0.5222
vt 0.1954 0.4881
vt 0.2198 0.5137
vt 0.2395 0.5223
vt 0.2132 0.0204
vt 0.2015 0.0336
vt 0.2431 0.0124
vt 0.2261 0.0198
vt 0.2198 0.5116
vt 0.2180 0.5295
vt 0.2015 0.0336
vt 0.2198 0.5116
vt 0.2180 0.5295
vn -0.9941 -0.0908 0.0600
vn -0.6331 0.7474 0.2016
vn -0.7302 -0.6822 0.0367
vn -0.7219 0.6767 0.1451
vn -0.8715 0.0208 -0.4900
vn -0.9491 -0.2631 -0.1734
vn -0.9268 -0.1586 0.3404
vn -0.0155 -0.5916 0.8061
vn -0.3635 -0.1653 0.9168
vn -0.9973 0.0290 0.0668
vn -0.9787 0.1317 -0.1578
vn 0.1862 0.5582 -0.8086
vn -0.0120 0.9996 -0.0260
vn 0.8035 -0.0903 0.5884
vn 0.9198 0.2189 -0.3258
vn 0.4952 0.8644 0.0867
vn -0.0201 0.9719 0.2347
vn -0.9908 -0.1343 0.0137
vn -0.6585 -0.7526 -0.0006
vn -0.9844 -0.1117 0.1356
vn -0.7905 -0.0685 0.6086
vn -0.1102 -0.4295 0.8963
vn -0.9485 0.1647 -0.2706
vn 0.9756 0.1207 0.1833
vn 0.0023 0.9540 0.2999
vn -0.7541 0.3265 0.5699
vn -0.9591 -0.2007 0.1997
vn -0.6621 -0.1011 0.7426
vn -0.4544 0.8796 0.1409
vn -0.3240 0.5480 0.7712
vn -0.9168 0.3763 -0.1335
vn -0.7087 0.7052 -0.0211
vn -0.6598 -0.6790 0.3220
vn -0.9906 -0.1217 -0.0631
vn -0.9741 0.0130 -0.2257
vn -0.9739 0.0102 -0.2267
vn 0.0188 0.3787 -0.9253
vn -0.2141 0.4778 -0.8520
vn -0.6144 -0.1483 -0.7749
vn -0.0095 0.2098 -0.9777
vn 0.7863 0.0914 -0.6111
vn -0.5640 0.2023 -0.8006
vn -0.6157 -0.1690 -0.7696
vn -0.9435 -0.3038 0.1327
vn -0.0542 0.9985 -0.0074
vn 0.5793 0.1099 0.8077
vn 0.7991 0.1581 -0.5800
vn 0.9997 0.0161 0.0177
vn -0.5645 0.2056 -0.7995
vn -0.9150 0.0659 0.3981
vn -0.0346 -0.4967 0.8672
vn -0.9311 0.2334 -0.2802
vn 0.3067 0.7064 0.6379
vn -0.2259 -0.7220 -0.6540
vn -0.9460 0.0128 -0.3239
vn -0.3196 0.8822 0.3459
vn -0.9892 0.0592 -0.1337
vn -0.6081 0.7904 -0.0744
vn -0.9940 -0.1035 -0.0344
vn -0.8116 -0.5631 -0.1556
vn -0.9599 -0.0052 -0.2803
vn -0.9000 0.0592 -0.4318
vn -0.2136 0.0409 -0.9761
vn -0.0174 0.7111 -0.7028
vn -0.8299 0.2090 -0.5172
vn 0.7757 0.1506 -0.6129
vn 0.3240 0.0326 0.9455
vn 0.7119 0.3540 -0.6065
vn -0.8951 0.2627 0.3603
vn -0.6737 -0.6920 -0.2593
vn -0.9359 0.1310 -0.3269
vn -0.8495 0.1197 0.5139
vn -0.0185 0.9984 -0.0540
vn 0.0114 0.9676 0.2521
vn 0.9947 -0.1010 0.0180
vn 0.6301 0.7485 0.2069
vn 0.7122 -0.7010 0.0378
vn 0.7998 -0.5135 -0.3108
vn 0.7152 0.6831 0.1482
vn 0.0524 -0.9494 -0.3097
vn 0.2033 -0.9644 -0.1692
vn -0.0195 -0.9207 0.3897
vn 0.7442 -0.3328 0.5792
vn 0.2491 -0.3925 0.8854
vn 0.9748 0.2226 0.0144
vn 0.9840 -0.0863 0.1557
vn 0.9808 0.1219 -0.1524
vn -0.1877 0.5578 -0.8085
vn 0.0944 -0.9179 0.3855
vn -0.8197 -0.0882 0.5659
vn -0.9127 0.2278 -0.3392
vn 0.1165 0.1570 0.9807
vn -0.4062 0.9135 0.0227
vn 0.9946 -0.1025 0.0166
vn 0.6988 -0.7147 0.0294
vn -0.0125 -0.9933 0.1147
vn 0.9894 -0.1370 -0.0481
vn 0.9941 -0.0786 -0.0749
vn 0.0955 -0.9626 0.2536
vn 0.9031 -0.1521 0.4017
vn 0.7861 0.0739 0.6136
vn 0.0100 0.9985 -0.0529
vn -0.9761 0.1182 0.1826
vn 0.5318 -0.4828 0.6958
vn 0.9592 -0.2005 0.1992
vn 0.9353 -0.1888 0.2994
vn 0.3589 0.8236 0.4392
vn 0.5151 0.6572 0.5502
vn 0.9398 0.3052 -0.1535
vn 0.7027 0.7112 -0.0178
vn 0.7048 -0.7076 0.0515
vn 0.9501 -0.2194 -0.2217
vn -0.5563 0.1810 -0.8110
vn 0.9533 -0.3020 -0.0041
vn 0.9859 -0.0530 -0.1584
vn 0.5921 0.2001 -0.7806
vn 0.4964 -0.2624 -0.8275
vn 0.5164 0.1680 -0.8397
vn 0.1203 0.8298 -0.5450
vn -0.7961 0.4179 -0.4376
vn 0.5634 0.1788 -0.8066
vn 0.8940 -0.4002 0.2017
vn -0.6146 0.0307 0.7883
vn -0.8279 0.0609 -0.5575
vn 0.5850 0.2198 -0.7807
vn 0.9360 0.0643 0.3461
vn 0.0400 -0.4993 0.8655
vn 0.9310 0.2363 -0.2780
vn -0.2991 0.7081 0.6396
vn 0.3912 0.7473 0.5371
vn 0.2101 -0.7244 -0.6566
vn 0.9600 -0.0067 -0.2801
vn 0.1751 0.7943 0.5817
vn 0.9914 0.0761 -0.1067
vn 0.6265 0.7770 -0.0617
vn 0.9958 -0.0878 -0.0261
vn -0.0566 0.9982 -0.0210
vn 0.9899 -0.1271 -0.0626
vn 0.8695 0.4063 0.2807
vn 0.8316 -0.4587 -0.3131
vn 0.9844 -0.0203 -0.1747
vn 0.9530 0.0950 0.2876
vn 0.3500 0.0727 -0.9339
vn 0.3568 0.3096 -0.8814
vn 0.7677 0.2779 -0.5775
vn -0.8863 0.1158 -0.4484
vn -0.5806 0.0131 0.8141
vn -0.5784 0.5494 -0.6030
vn -0.0388 -0.9967 0.0717
vn -0.2988 -0.1094 0.9480
vn -0.3270 -0.9059 0.2691
vn -0.3002 0.4556 -0.8380
vn 0.0242 -0.0004 0.9997
vn 0.0571 0.4694 0.8811
vn 0.5575 0.1744 -0.8116
vn 0.2072 -0.0854 0.9746
vn 0.0454 -0.9940 0.0994
vn 0.0404 -0.6651 0.7457
vn 0.4012 0.4172 -0.8155
vn 0.0650 0.4050 0.9120
vn -0.0445 -0.0768 0.9961
vn -0.0557 0.9883 0.1418
vn -0.0662 0.6135 -0.7869
vn -0.9886 0.0721 -0.1318
vn -0.5581 0.6219 0.5494
vn -0.0572 0.6074 -0.7923
vn -0.2124 -0.3855 -0.8979
vn -0.9618 -0.0122 0.2735
vn -0.9954 0.0653 -0.0706
vn 0.4394 -0.1528 -0.8852
vn 0.7396 0.6230 0.2546
vn -0.9861 0.0097 -0.1658
vn 0.0758 -0.3613 -0.9294
vn -0.9933 -0.0077 0.1157
vn 0.8638 0.0655 0.4996
vn -0.9889 -0.0739 0.1291
vn 0.3884 -0.3712 -0.8434
vn -0.5700 -0.6358 -0.5204
vn -0.4967 -0.5206 -0.6944
vn 0.6371 -0.0268 0.7703
vn -0.9975 -0.0226 0.0663
vn 0.5660 0.0275 -0.8239
vn -0.9900 -0.0376 0.1361
vn 0.0504 -0.1424 -0.9885
vn 0.0800 0.4437 0.8926
vn 0.8813 -0.1170 0.4579
vn -0.4912 -0.7610 -0.4237
vn 0.2132 -0.3851 -0.8979
vn 0.9619 -0.0119 0.2732
vn 0.9958 0.0641 -0.0661
vn -0.4453 -0.1484 -0.8830
vn -0.7399 0.6235 0.2524
vn 0.9861 0.0073 -0.1660
vn -0.0764 -0.3615 -0.9292
vn 0.9933 -0.0077 0.1157
vn -0.7886 0.0303 0.6141
vn 0.9889 -0.0738 0.1291
vn -0.2372 -0.4062 -0.8825
vn -0.9958 0.0914 -0.0114
vn 0.5735 -0.6346 -0.5180
vn 0.4961 -0.5142 -0.6996
vn -0.6371 -0.0268 0.7703
vn 0.9690 0.0320 0.2450
vn -0.5140 0.0076 -0.8578
vn 0.9900 -0.0376 0.1361
vn -0.3815 -0.0397 -0.9235
vn -0.0801 0.4436 0.8927
vn -0.4755 -0.4884 -0.7317
vn -0.7834 0.0110 0.6214
vn 0.4901 -0.7653 -0.4172
vn -0.2993 0.1628 0.9402
vn 0.9867 0.0489 0.1549
vn 0.4447 -0.4708 -0.7619
vn 0.3067 0.1610 0.9381
vn -0.9867 0.0498 0.1549
vn -0.4452 -0.4705 -0.7619
vn 0.0322 -0.5354 -0.8440
vn -0.9429 -0.3168 0.1030
vn -0.2205 -0.6703 0.7086
vn -0.8643 -0.0384 -0.5014
vn -0.9542 0.1027 -0.2809
vn 0.1334 0.2270 0.9647
vn -0.0382 -0.9841 -0.1736
vn -0.5460 -0.7228 0.4235
vn 0.0325 0.3489 0.9366
vn 0.9708 -0.2241 0.0851
vn -0.0619 0.4055 -0.9120
vn 0.1094 -0.8613 0.4962
vn 0.2775 -0.0873 -0.9567
vn 0.8947 0.0072 -0.4466
vn 0.3005 0.1869 0.9353
vn 0.0421 -0.9840 -0.1734
vn 0.4938 -0.7420 0.4534
vn 0.5480 -0.7196 0.4265
vn -0.0172 -0.9905 0.1361
vn -0.8231 -0.1522 0.5471
vn -0.8882 0.2568 -0.3809
vn -0.8850 -0.0591 -0.4619
vn -0.9600 0.1173 -0.2542
vn 0.0103 -0.4428 0.8966
vn -0.6648 -0.0779 0.7430
vn -0.2653 -0.1479 0.9527
vn -0.7289 0.1777 0.6612
vn 0.1818 0.3777 -0.9079
vn -0.3317 -0.7911 0.5139
vn 0.1147 -0.9336 0.3394
vn 0.4114 0.8150 -0.4080
vn 0.9968 0.0267 -0.0749
vn 0.8777 -0.1245 0.4628
vn 0.9426 -0.0267 -0.3328
vn 0.9892 0.1180 -0.0873
vn 0.3107 0.1833 -0.9326
vn 0.3185 0.0175 0.9477
vn 0.2258 -0.0974 -0.9693
vn 0.8165 -0.1224 0.5642
vn 0.9447 0.2787 0.1727
vn -0.9086 0.1636 0.3844
vn -0.9869 0.1465 -0.0676
vn 0.8812 0.3863 -0.2727
vn 0.3641 -0.5153 -0.7758
vn -0.8161 -0.1240 0.5644
vn -0.9452 0.2767 0.1733
vn 0.9085 0.1637 0.3845
vn -0.0534 0.9972 0.0520
vn 0.9868 0.1472 -0.0682
vn -0.8800 0.3880 -0.2740
vn -0.2484 -0.5192 -0.8178
vn -0.8956 0.3973 0.1999
vn -0.2898 -0.3058 -0.9069
vn 0.0361 0.9993 0.0047
vn 0.0566 0.9969 0.0551
vn 0.8951 0.3987 0.1997
vn 0.2897 -0.3063 -0.9068
vn -0.0359 0.9993 0.0069
usemtl base_skin
s off
f 16/1/1 14/2/1 19/3/1
f 16/1/2 19/3/2 17/4/2
f 42/5/3 13/6/3 15/7/3
f 19/3/4 26/8/4 17/4/4
f 14/2/5 18/9/5 19/3/5
f 20/10/6 18/9/6 14/2/6
f 21/11/7 20/10/7 97/12/7
f 97/12/8 25/13/8 24/14/8
f 22/15/9 97/12/9 35/16/9
f 21/11/10 31/17/10 18/9/10
f 18/9/11 31/17/11 28/18/11
f 26/8/12 28/18/12 33/19/12
f 26/8/13 32/20/13 109/21/13
f 27/22/14 23/23/14 32/24/14
f 32/20/15 26/8/15 33/19/15
f 32/24/16 23/23/16 108/25/16
f 26/8/17 91/26/17 17/27/17
f 16/1/18 15/28/18 14/2/18
f 15/7/19 13/6/19 14/2/19
f 21/11/20 18/9/20 20/10/20
f 22/15/21 21/11/21 97/12/21
f 35/16/22 97/12/22 24/14/22
f 19/3/23 18/9/23 28/18/23
f 27/29/24 32/20/24 33/19/24
f 108/30/25 109/21/25 32/20/25
f 22/15/26 23/23/26 21/11/26
f 46/31/27 37/32/27 38/33/27
f 37/32/28 46/31/28 49/34/28
f 37/32/29 49/34/29 118/35/29
f 40/36/30 118/35/30 119/37/30
f 44/38/31 43/39/31 16/1/31
f 44/38/32 16/1/32 17/27/32
f 15/28/33 45/40/33 42/5/33
f 47/41/34 15/28/34 43/39/34
f 43/39/35 51/42/35 52/43/35
f 43/39/36 52/43/36 47/41/36
f 54/44/37 52/43/37 51/42/37
f 49/45/38 53/46/38 134/47/38
f 53/46/39 48/48/39 47/41/39
f 52/43/40 132/49/40 134/47/40
f 54/44/41 55/50/41 52/43/41
f 54/44/42 51/42/42 58/51/42
f 47/41/43 52/43/43 53/46/43
f 42/5/44 45/40/44 46/52/44
f 57/53/45 136/54/45 55/55/45
f 57/53/46 56/56/46 50/57/46
f 58/51/47 56/58/47 55/50/47
f 57/53/48 55/55/48 56/56/48
f 58/51/49 51/42/49 59/59/49
f 44/38/50 50/57/50 51/42/50
f 46/60/51 36/61/51 68/62/51
f 67/63/52 68/64/52 36/65/52
f 36/66/53 46/31/53 38/33/53
f 36/66/54 38/33/54 67/67/54
f 38/33/55 37/32/55 40/36/55
f 40/36/56 37/32/56 118/35/56
f 39/68/57 38/33/57 40/36/57
f 44/38/58 17/27/58 57/53/58
f 15/28/59 16/1/59 43/39/59
f 15/28/60 47/41/60 48/48/60
f 45/40/61 15/28/61 48/48/61
f 45/40/62 48/48/62 49/45/62
f 53/46/63 52/43/63 134/47/63
f 132/49/64 52/43/64 55/50/64
f 49/45/65 48/48/65 53/46/65
f 54/44/66 58/51/66 55/50/66
f 44/38/67 57/53/67 50/57/67
f 58/51/68 59/59/68 56/58/68
f 51/42/69 50/57/69 59/59/69
f 20/10/70 14/2/70 13/6/70 92/69/70
f 46/31/71 45/70/71 49/34/71
f 43/39/72 44/38/72 51/42/72
f 91/26/73 57/53/73 17/27/73
f 26/8/74 107/71/74 91/26/74
f 90/72/75 93/73/75 87/74/75
f 90/72/76 91/75/76 93/73/76
f 88/76/77 89/77/77 86/78/77
f 94/79/78 86/78/78 87/74/78
f 93/73/79 91/75/79 107/71/79
f 13/6/80 86/78/80 92/69/80
f 94/79/81 92/69/81 86/78/81
f 96/80/82 97/12/82 92/69/82
f 95/81/83 99/82/83 94/79/83
f 99/82/84 100/83/84 96/80/84
f 95/81/85 93/73/85 101/84/85
f 106/85/86 101/84/86 93/73/86
f 93/73/87 103/86/87 106/85/87
f 103/86/88 107/71/88 110/87/88
f 25/13/89 97/12/89 100/83/89
f 98/88/90 102/89/90 109/90/90
f 109/21/91 110/87/91 107/71/91
f 108/25/92 101/84/92 98/88/92
f 109/90/93 108/25/93 98/88/93
f 90/72/94 87/74/94 89/91/94
f 89/77/95 87/74/95 86/78/95
f 88/76/96 86/78/96 122/92/96
f 95/81/97 94/79/97 87/74/97
f 93/73/98 95/81/98 87/74/98
f 96/80/99 92/69/99 94/79/99
f 99/82/100 96/80/100 94/79/100
f 101/84/101 99/82/101 95/81/101
f 107/71/102 26/8/102 109/21/102
f 102/93/103 110/87/103 109/21/103
f 112/94/104 100/83/104 99/82/104
f 126/95/105 115/96/105 114/97/105
f 114/97/106 130/98/106 126/95/106
f 114/97/107 118/35/107 49/34/107
f 117/99/108 119/37/108 118/35/108
f 125/100/109 90/72/109 124/101/109
f 125/100/110 91/26/110 90/72/110
f 88/76/111 123/102/111 89/91/111
f 123/102/112 124/101/112 89/91/112
f 148/103/113 126/104/113 147/105/113
f 128/106/114 124/101/114 123/102/114
f 123/102/115 130/107/115 129/108/115
f 132/49/116 127/109/116 128/106/116
f 134/47/117 128/106/117 129/108/117
f 127/109/118 137/110/118 138/111/118
f 132/49/119 55/50/119 136/112/119
f 133/113/120 132/49/120 136/112/120
f 133/113/121 137/110/121 127/109/121
f 123/102/122 88/76/122 126/114/122
f 136/54/123 131/115/123 135/116/123
f 137/110/124 136/112/124 135/117/124
f 127/109/125 132/49/125 133/113/125
f 125/100/126 127/109/126 131/115/126
f 126/104/127 148/118/127 113/119/127
f 147/105/128 113/120/128 148/103/128
f 113/121/129 115/96/129 126/95/129
f 114/97/130 49/34/130 130/98/130
f 113/121/131 147/122/131 115/96/131
f 115/96/132 117/99/132 114/97/132
f 117/99/133 118/35/133 114/97/133
f 121/123/134 117/99/134 115/96/134
f 125/100/135 136/54/135 91/26/135
f 89/91/136 124/101/136 90/72/136
f 57/53/137 91/26/137 136/54/137
f 127/109/138 124/101/138 128/106/138
f 125/100/139 124/101/139 127/109/139
f 123/102/140 129/108/140 128/106/140
f 126/114/141 130/107/141 123/102/141
f 127/109/142 138/111/142 131/115/142
f 132/49/143 128/106/143 134/47/143
f 130/107/144 49/45/144 134/47/144
f 130/107/145 134/47/145 129/108/145
f 133/113/146 136/112/146 137/110/146
f 125/100/147 131/115/147 136/54/147
f 137/110/148 135/117/148 138/111/148
f 13/6/149 42/5/149 122/92/149
f 31/17/150 21/11/150 23/23/150 27/22/150
f 20/10/151 92/69/151 97/12/151
f 19/3/152 28/18/152 26/8/152
f 35/16/153 112/94/153 22/15/153
f 23/23/154 22/15/154 108/25/154
f 68/64/155 67/63/155 46/60/155
f 98/88/156 101/84/156 106/85/156 102/89/156
f 86/78/157 13/6/157 122/92/157
f 100/83/158 97/12/158 96/80/158
f 107/71/159 103/86/159 93/73/159
f 22/15/160 99/82/160 101/84/160 108/25/160
f 22/15/161 112/94/161 99/82/161
usemtl base_skin_2
f 119/37/162 117/99/162 41/124/162
f 117/125/163 121/126/163 39/68/163
f 39/127/164 40/128/164 41/129/164
f 41/124/165 40/36/165 119/37/165
f 41/130/166 117/125/166 39/68/166
usemtl base_skin_3
f 8/131/167 12/132/167 29/133/167
f 29/133/168 9/134/168 8/131/168
f 31/17/169 9/134/169 29/133/169
f 33/19/170 28/18/170 29/133/170
f 30/135/171 34/136/171 9/134/171
f 28/18/172 31/17/172 29/133/172
f 34/137/173 33/19/173 29/133/173
f 50/57/174 61/138/174 60/139/174
f 56/56/175 65/140/175 61/138/175
f 62/141/176 61/138/176 63/142/176
f 60/139/177 62/141/177 65/143/177
f 67/67/178 38/144/178 116/145/178
f 116/145/179 38/33/179 39/68/179
f 50/57/180 56/56/180 61/138/180
f 59/59/181 50/57/181 60/139/181
f 59/59/182 60/139/182 56/58/182
f 62/141/183 60/139/183 61/138/183
f 56/58/184 60/139/184 65/143/184
f 61/138/185 64/146/185 63/142/185
f 61/138/186 65/140/186 64/146/186
f 67/67/187 116/145/187 46/31/187
f 85/147/188 81/148/188 104/149/188
f 82/150/189 104/149/189 81/148/189
f 106/85/190 104/149/190 82/150/190
f 110/87/191 104/149/191 103/86/191
f 105/151/192 82/150/192 111/152/192
f 103/86/193 104/149/193 106/85/193
f 111/153/194 104/149/194 110/87/194
f 131/115/195 139/154/195 140/155/195
f 135/116/196 140/155/196 143/156/196
f 141/157/197 142/158/197 140/155/197
f 139/154/198 145/159/198 141/157/198
f 143/156/199 144/160/199 145/161/199
f 147/122/200 116/145/200 115/162/200
f 116/145/201 121/123/201 115/96/201
f 131/115/202 140/155/202 135/116/202
f 138/111/203 139/154/203 131/115/203
f 138/111/204 135/117/204 139/154/204
f 141/157/205 140/155/205 139/154/205
f 135/117/206 143/163/206 139/154/206
f 140/155/207 142/158/207 144/160/207
f 143/163/208 145/159/208 139/154/208
f 140/155/209 144/160/209 143/156/209
f 147/122/210 126/95/210 116/145/210
f 9/134/211 31/17/211 27/22/211 30/135/211
f 33/19/212 34/137/212 30/164/212 27/29/212
f 34/137/213 29/133/213 12/132/213
f 102/89/214 106/85/214 82/150/214 105/151/214
f 110/87/215 102/93/215 105/165/215 111/153/215
f 85/147/216 104/149/216 111/153/216
f 39/68/217 121/123/217 116/145/217
usemtl base_skin_4
f 2/166/218 3/167/218 1/168/218
f 3/167/219 72/169/219 5/170/219
f 7/171/220 6/172/220 76/173/220
f 4/174/221 5/170/221 7/171/221
f 79/175/222 80/176/222 77/177/222
f 116/145/223 120/178/223 46/31/223
f 42/5/224 46/52/224 120/179/224
f 1/168/225 71/180/225 69/181/225
f 71/180/226 70/182/226 69/181/226
f 4/174/227 73/183/227 71/180/227
f 71/180/228 72/169/228 3/167/228
f 76/173/229 75/184/229 73/183/229
f 73/183/230 74/185/230 72/169/230
f 74/185/231 80/176/231 79/175/231
f 116/145/232 126/95/232 120/178/232
f 120/179/233 88/76/233 122/92/233
f 88/76/234 120/179/234 126/114/234
f 2/166/235 70/182/235 3/167/235
f 1/168/236 3/167/236 4/174/236
f 4/174/237 3/167/237 5/170/237
f 7/171/238 5/170/238 6/172/238
f 6/172/239 77/177/239 76/173/239
f 5/170/240 72/169/240 78/186/240
f 6/172/241 5/170/241 79/175/241
f 5/170/242 78/186/242 79/175/242
f 6/172/243 79/175/243 77/177/243
f 80/176/244 75/184/244 76/173/244 77/177/244
f 120/179/245 122/92/245 42/5/245
f 70/182/246 71/180/246 3/167/246
f 1/168/247 4/174/247 71/180/247
f 71/180/248 73/183/248 72/169/248
f 72/169/249 74/185/249 78/186/249
f 73/183/250 75/184/250 74/185/250
f 75/184/251 80/176/251 74/185/251
f 4/174/252 7/171/252 73/183/252
f 78/186/253 74/185/253 79/175/253
f 7/171/254 76/173/254 73/183/254
usemtl nail
f 34/187/255 10/188/255 9/134/255
f 34/137/256 12/132/256 10/189/256
f 11/190/257 8/131/257 10/191/257
f 63/142/258 66/192/258 62/141/258
f 65/143/259 66/193/259 64/194/259
f 62/141/260 66/193/260 65/143/260
f 83/195/261 111/196/261 82/150/261
f 111/153/262 83/197/262 85/147/262
f 84/198/263 83/199/263 81/148/263
f 146/200/264 144/201/264 142/158/264
f 142/158/265 141/157/265 146/200/265
f 145/159/266 144/202/266 146/203/266
f 141/157/267 145/159/267 146/203/267
f 8/131/268 9/134/268 10/191/268
f 12/132/269 8/131/269 11/204/269
f 11/190/270 10/191/270 12/205/270
f 66/192/271 63/142/271 64/206/271
f 83/199/272 82/150/272 81/148/272
f 84/207/273 81/148/273 85/147/273
f 83/199/274 84/198/274 85/208/274
